<?xml version="1.0" encoding="utf-8"?>
<!-- Generator: Adobe Illustrator 16.0.0, SVG Export Plug-In . SVG Version: 6.00 Build 0)  -->
<!DOCTYPE svg PUBLIC "-//W3C//DTD SVG 1.1//EN" "http://www.w3.org/Graphics/SVG/1.1/DTD/svg11.dtd">
<svg version="1.1" id="Layer_1" xmlns="http://www.w3.org/2000/svg" xmlns:xlink="http://www.w3.org/1999/xlink" x="0px" y="0px"
	 width="350px" height="65.155px" viewBox="0 0 350 65.155" enable-background="new 0 0 350 65.155" xml:space="preserve">
<g>
	<text transform="matrix(1 0 0 1 119.146 51.5405)" fill="#FFFFFF" font-family="'Raleway-ExtraLight'" font-size="60.01">solangel</text>
	<g>
		<g>
			<g>
				<path opacity="0.8" fill="#73CAC8" d="M57.866,33.437c0,0,11.56-38.54,53.956-21.196c0,0,1.284,16.7-12.208,21.196
					C99.615,33.437,85.296,40.908,57.866,33.437z"/>
				<path opacity="0.8" fill="#73CAC8" d="M57.866,33.478c0,0,23.379-26.228,50.527,3.154c0,0-5.081,12.703-17.49,12.264
					C81.793,48.574,76.812,49.519,57.866,33.478z"/>
				<path opacity="0.8" fill="#73CAC8" d="M57.866,33.413c0,0,25.227-6.86,30.223,22.481c0,0-7.921,4.314-18.615-1.67
					C64.278,51.312,58.51,45.968,57.866,33.413z"/>
			</g>
		</g>
		<g>
			<g>
				<path opacity="0.8" fill="#73CAC8" d="M53.989,33.437c0,0-11.56-38.54-53.956-21.196c0,0-1.285,16.7,12.206,21.196
					C12.238,33.437,26.559,40.908,53.989,33.437z"/>
				<path opacity="0.8" fill="#73CAC8" d="M53.989,33.478c0,0-23.381-26.228-50.525,3.154c0,0,5.078,12.703,17.487,12.264
					C30.061,48.574,35.042,49.519,53.989,33.478z"/>
				<path opacity="0.8" fill="#73CAC8" d="M53.989,33.413c0,0-25.228-6.86-30.223,22.481c0,0,7.921,4.314,18.614-1.67
					C47.576,51.312,53.344,45.968,53.989,33.413z"/>
			</g>
		</g>
	</g>
</g>
</svg>
